<svg id="Layer_1" data-name="Layer 1" xmlns="http://www.w3.org/2000/svg" viewBox="0 0 257.17 78.7"><defs><style>.cls-1{fill:#231f20;}.cls-2,.cls-3{fill:#fff;}.cls-2{stroke:#231f20;stroke-width:3.52px;}</style></defs><title>AmpledLogo</title><g id="_Group_" data-name="&lt;Group&gt;"><path id="_Path_" data-name="&lt;Path&gt;" class="cls-1" d="M5.06,71s56.58-2.75,72.7-2.91,59.15.17,63.26.35S189.64,67,189.64,67L244,64l3.5-40.68c-2.83-1.74-19.38-1.22-26.89-1s-43.92-.26-53.49,3c-8,2.7-41.86.59-72.53,1.15s-88.92,3.8-88.92,3.8S6.09,50,5.33,54.75,5.06,71,5.06,71"/><g id="_Group_2" data-name="&lt;Group&gt;"><path class="cls-2" d="M51.6,48.28l-4.51.07-.5-.49L44,41.39l-1-.49-12.52.21-1,.52L27,48.18l-.49.51L22,48.77l-.51-.5-.08-5L32.49,14l.5-.51,6.51-.11.51.5L52,42.76l.09,5Zm-15-25.82h-.5l-4.31,12.1.51.49,8.52-.14.49-.51Z"/><path class="cls-3" d="M51.6,48.28l-4.51.07-.5-.49L44,41.39l-1-.49-12.52.21-1,.52L27,48.18l-.49.51L22,48.77l-.51-.5-.08-5L32.49,14l.5-.51,6.51-.11.51.5L52,42.76l.09,5Zm-15-25.82h-.5l-4.31,12.1.51.49,8.52-.14.49-.51Z"/></g><g id="_Group_3" data-name="&lt;Group&gt;"><path class="cls-2" d="M95.78,47.87l-6,.3-.52-.48-1-19.52-.5,0-7,19.91-.47.53-5.51.27-.53-.47-9-19.13-.5,0,1,19.52-.48.52-6,.3-.53-.48L57,15.17l.48-.53L65,14.27l.52.48,11.23,24,.5,0,8.79-25,.48-.52,7.51-.37.52.47,1.69,34Z"/><path class="cls-3" d="M95.78,47.87l-6,.3-.52-.48-1-19.52-.5,0-7,19.91-.47.53-5.51.27-.53-.47-9-19.13-.5,0,1,19.52-.48.52-6,.3-.53-.48L57,15.17l.48-.53L65,14.27l.52.48,11.23,24,.5,0,8.79-25,.48-.52,7.51-.37.52.47,1.69,34Z"/></g><g id="_Group_4" data-name="&lt;Group&gt;"><path class="cls-2" d="M120.74,36.36l-9.52.28-.49.51.38,13-.49.52-6,.17-.51-.48-1-34.07.49-.51,16.53-.48c7-.2,12.12,3.17,12.32,10.18S127.75,36.16,120.74,36.36Zm-.43-15-9.52.27-.49.51.23,8,.52.48,9.52-.27c3-.08,5-1.14,4.88-4.65S123.31,21.25,120.31,21.34Z"/><path class="cls-3" d="M120.74,36.36l-9.52.28-.49.51.38,13-.49.52-6,.17-.51-.48-1-34.07.49-.51,16.53-.48c7-.2,12.12,3.17,12.32,10.18S127.75,36.16,120.74,36.36Zm-.43-15-9.52.27-.49.51.23,8,.52.48,9.52-.27c3-.08,5-1.14,4.88-4.65S123.31,21.25,120.31,21.34Z"/></g><g id="_Group_5" data-name="&lt;Group&gt;"><path class="cls-2" d="M163.89,47.7l-22.54.61-.51-.49-.92-34.06.48-.52,6-.16.51.49.76,28.05.51.49,15.53-.42.52.48.13,5Z"/><path class="cls-3" d="M163.89,47.7l-22.54.61-.51-.49-.92-34.06.48-.52,6-.16.51.49.76,28.05.51.49,15.53-.42.52.49.13,5Z"/></g><g id="_Group_6" data-name="&lt;Group&gt;"><path class="cls-2" d="M194,45.69l-23.55.06-.51-.5-.08-34.08.51-.5,23.55-.05.5.5v5l-.5.5-16.54,0-.5.5,0,7,.5.5,15.54,0,.5.5v5l-.5.5-15.53,0-.5.5v8l.51.5,16.53,0,.51.5v5Z"/><path class="cls-3" d="M194,45.69l-23.55.06-.51-.5-.08-34.08.51-.5,23.55-.05.5.5v5l-.5.5-16.54,0-.5.5,0,7,.5.5,15.54,0,.5.5v5l-.5.5-15.53,0-.5.5v8l.51.5,16.53,0,.51.5v5Z"/></g><g id="_Group_7" data-name="&lt;Group&gt;"><path class="cls-2" d="M216,45.66l-11,.64-.53-.47-2-34,.48-.53,11-.64c12.51-.73,17.39,5.51,18,16.51S228.53,44.93,216,45.66Zm-1.19-29-4.5.26-.47.53,1.28,22,.53.47,4.5-.26c7-.41,9.31-4.06,8.84-12.06S221.84,16.21,214.83,16.62Z"/><path class="cls-3" d="M216,45.66l-11,.64-.53-.47-2-34,.48-.53,11-.64c12.51-.73,17.39,5.51,18,16.51S228.53,44.93,216,45.66Zm-1.19-29-4.5.26-.47.53,1.28,22,.53.47,4.5-.26c7-.41,9.31-4.06,8.84-12.06S221.84,16.21,214.83,16.62Z"/></g></g></svg>